<svg width="120" height="120" viewBox="0 0 120 120" fill="none" xmlns="http://www.w3.org/2000/svg">
<g clip-path="url(#clip0_57:192)">
<path fill-rule="evenodd" clip-rule="evenodd" d="M69.5239 54.2555C68.9451 49.7603 67.4878 45.2794 65.2053 40.9581C72.8925 28.6869 83.1765 17.314 88.3267 12.5746C89.014 11.9507 89.0238 10.9023 88.3689 10.2576C88.0469 9.94466 87.6152 9.76524 87.1627 9.75633C86.7103 9.74742 86.2717 9.90971 85.9372 10.2097C80.8779 14.8725 71.0104 25.7315 63.2779 37.6422C61.6898 35.1667 59.8909 32.8285 57.9008 30.6528C57.2712 29.9636 56.6236 29.2905 55.9587 28.6342C63.2454 15.1023 78.4236 4.69644 93.0003 3.19165C93.8692 15.5746 93.7071 47.9603 69.5239 54.2555ZM96.056 1.5225C98.7032 32.5869 89.0157 53.7193 70.0961 58.4347C70.1366 59.7464 70.1026 61.0597 69.9956 62.3667C69.9145 63.2714 69.1364 63.9257 68.1768 63.8794C67.2446 63.8044 66.5557 62.997 66.6302 62.0922C67.1701 55.6565 65.6754 49.023 62.3782 42.7358C62.1754 42.5199 62.0369 42.2532 61.9778 41.9651C60.2702 38.8935 58.2269 36.0147 55.8841 33.3799C55.1579 32.5624 54.4053 31.7678 53.6276 30.9975C53.3516 30.8452 53.1247 30.6196 52.9727 30.3464C45.1105 22.7714 35.0242 17.7177 25.5636 16.7028C24.2213 35.7736 27.9611 51.8347 35.9174 60.948C40.7644 66.4948 47.1482 69.573 54.8888 70.0917C55.3343 70.1219 55.7493 70.325 56.0429 70.6561C56.3365 70.9873 56.4846 71.4196 56.4548 71.8581C56.4311 72.2775 56.2445 72.6719 55.9338 72.9597C55.623 73.2475 55.2117 73.4067 54.7851 73.4044C54.7478 73.4044 54.7137 73.4044 54.6683 73.398C45.9972 72.8076 38.8304 69.3448 33.369 63.1023C24.4645 52.9151 20.5545 35.7512 22.3393 14.772C22.4106 13.8784 23.1498 13.1347 24.1143 13.2592C34.2995 13.8464 45.3066 18.9002 54.0134 26.764C62.1382 12.0193 78.6991 0.904945 94.276 0.00654105C95.1725 -0.0780334 95.9798 0.632073 96.056 1.5225ZM31.2633 22.797C39.748 30.8076 59.7763 54.5443 64.0236 72.9863C64.1175 73.4155 64.036 73.8637 63.7966 74.2341C63.5572 74.6044 63.1792 74.8671 62.7445 74.9651C62.6217 74.9883 62.4968 75.0001 62.3717 75.0002C61.6017 75.0002 60.903 74.4784 60.7295 73.7124C56.6509 55.9932 37.1753 32.9555 28.9192 25.1746C28.7597 25.0252 28.6318 24.8461 28.5432 24.6477C28.4545 24.4493 28.4068 24.2355 28.4027 24.0187C28.3986 23.802 28.4383 23.5866 28.5195 23.3851C28.6006 23.1836 28.7216 23 28.8754 22.8448C29.5239 22.1906 30.6002 22.173 31.2649 22.797H31.2633Z" fill="#F08F77"/>
</g>
<path d="M0 90H3.39048V118.481H0V90ZM22.9524 99.45L21.9429 101.119C20.419 100.331 18.7556 99.9375 16.9524 99.9375C15.7333 99.9375 14.781 100.2 14.0952 100.725C13.4095 101.25 13.0667 101.962 13.0667 102.862C13.0667 103.825 13.3841 104.569 14.019 105.094C14.6413 105.619 15.8349 106.137 17.6 106.65C20.1016 107.4 21.8413 108.237 22.819 109.162C23.7841 110.1 24.2667 111.406 24.2667 113.081C24.2667 114.856 23.5937 116.287 22.2476 117.375C20.8889 118.475 19.1429 119.025 17.0095 119.025C14.2032 119.025 11.7651 118.275 9.69524 116.775C9.78413 116.625 9.93651 116.369 10.1524 116.006C10.3683 115.619 10.5524 115.319 10.7048 115.106C12.4698 116.069 14.3746 116.55 16.419 116.55C19.619 116.55 21.219 115.362 21.219 112.987C21.219 112.037 20.8762 111.287 20.1905 110.737C19.5048 110.2 18.2286 109.694 16.3619 109.219C12.0317 108.019 9.86667 105.931 9.86667 102.956C9.86667 101.369 10.5016 100.062 11.7714 99.0375C13.0413 98.025 14.6667 97.5187 16.6476 97.5187C18.9841 97.5187 21.0857 98.1625 22.9524 99.45ZM48.1905 108.319C48.1905 111.556 47.1492 114.212 45.0667 116.287C43.2127 118.112 40.927 119.025 38.2095 119.025C35.073 119.025 32.546 117.856 30.6286 115.519C29.0159 113.531 28.2095 111.131 28.2095 108.319C28.2095 105.019 29.2127 102.35 31.219 100.312C33.0476 98.45 35.3778 97.5187 38.2095 97.5187C41.4095 97.5187 43.9556 98.7 45.8476 101.062C47.4095 103.05 48.1905 105.469 48.1905 108.319ZM31.5048 108.319C31.5048 110.931 32.1905 113 33.5619 114.525C34.781 115.875 36.3175 116.55 38.1714 116.55C40.1778 116.55 41.8032 115.794 43.0476 114.281C44.2794 112.769 44.8952 110.781 44.8952 108.319C44.8952 105.731 44.2222 103.662 42.8762 102.112C41.6571 100.662 40.1016 99.9375 38.2095 99.9375C36.2032 99.9375 34.5841 100.712 33.3524 102.262C32.1206 103.812 31.5048 105.831 31.5048 108.319ZM70.819 108.319V109.312H56C56.127 111.5 56.8952 113.25 58.3048 114.562C59.727 115.887 61.5619 116.55 63.8095 116.55C65.7016 116.55 67.5492 115.994 69.3524 114.881L70.4 116.681C68.3936 118.244 65.9683 119.025 63.1238 119.025C59.8349 119.025 57.219 117.962 55.2762 115.837C53.473 113.912 52.5714 111.419 52.5714 108.356C52.5714 105.181 53.5302 102.525 55.4476 100.387C57.1873 98.475 59.3397 97.5187 61.9048 97.5187C64.9778 97.5187 67.3206 98.75 68.9333 101.212C70.1905 103.125 70.819 105.494 70.819 108.319ZM55.9619 106.875H67.6571C67.5683 104.687 67.0286 102.975 66.0381 101.737C65.0476 100.512 63.6825 99.9 61.9429 99.9C60.2921 99.9 58.9143 100.544 57.8095 101.831C56.6921 103.119 56.0762 104.8 55.9619 106.875ZM95.181 108.319C95.181 111.556 94.146 114.212 92.0762 116.287C90.2095 118.112 87.9238 119.025 85.219 119.025C82.0698 119.025 79.5365 117.856 77.619 115.519C76.0063 113.531 75.2 111.131 75.2 108.319C75.2 105.019 76.2032 102.35 78.2095 100.312C80.0381 98.45 82.3746 97.5187 85.219 97.5187C88.4191 97.5187 90.9587 98.7 92.8381 101.062C94.4 103.05 95.181 105.469 95.181 108.319ZM78.4952 108.319C78.4952 110.931 79.181 113 80.5524 114.525C81.7714 115.875 83.3079 116.55 85.1619 116.55C87.181 116.55 88.8064 115.794 90.0381 114.281C91.2698 112.769 91.8857 110.781 91.8857 108.319C91.8857 105.731 91.2127 103.662 89.8667 102.112C88.6476 100.662 87.0984 99.9375 85.219 99.9375C83.2 99.9375 81.5746 100.712 80.3429 102.262C79.1111 103.812 78.4952 105.831 78.4952 108.319ZM118.4 106.294V118.481H115.39V106.519C115.39 102.256 113.498 100.125 109.714 100.125C108.622 100.125 107.543 100.381 106.476 100.894C105.41 101.406 104.584 102.05 104 102.825V118.481H100.933V98.0625H103.505L103.771 100.219H103.905C105.708 98.4187 107.962 97.5187 110.667 97.5187C115.822 97.5187 118.4 100.444 118.4 106.294Z" fill="#F08F77"/>
<defs>
<clipPath id="clip0_57:192">
<rect width="74.5694" height="75" fill="white" transform="translate(21.916)"/>
</clipPath>
</defs>
</svg>
