<svg width="586" height="877" viewBox="0 0 586 877" fill="none" xmlns="http://www.w3.org/2000/svg">
<path opacity="0.1" fill-rule="evenodd" clip-rule="evenodd" d="M159.245 0.660905C59.9904 5.37687 -44.4163 42.2627 -105.019 119.058C-161.053 190.064 -123.403 290.888 -139.408 379.114C-152.276 450.044 -200.302 512.961 -189.404 584.204C-177.332 663.132 -138.842 738.453 -76.5317 790.186C-11.2714 844.368 75.1646 889.895 159.245 873.671C240.739 857.947 266.125 754.823 335.751 710.635C411.931 662.287 544.747 688.785 579.569 606.913C613.682 526.71 502.043 456.257 479.692 372.209C454.933 279.108 506.392 166.633 442.906 93.0241C377.135 16.7636 261.311 -4.1886 159.245 0.660905Z" fill="#B8E7BF"/>
</svg>
